<?xml version="1.0" encoding="utf-8"?>
<!-- Svg Vector Icons : http://www.onlinewebfonts.com/icon -->
<!DOCTYPE svg PUBLIC "-//W3C//DTD SVG 1.1//EN" "http://www.w3.org/Graphics/SVG/1.1/DTD/svg11.dtd">
<svg version="1.1" xmlns="http://www.w3.org/2000/svg" xmlns:xlink="http://www.w3.org/1999/xlink" x="0px" y="0px" viewBox="0 0 1000 1000" enable-background="new 0 0 1000 1000" xml:space="preserve">
<metadata> Svg Vector Icons : http://www.onlinewebfonts.com/icon </metadata>
<g><g transform="translate(0.000000,511.000000) scale(0.100000,-0.100000)"><path d="M4701.4,4996.9c-1208.3-62.1-2368.3-598.4-3236-1498.3C-352.8,1609-355.1-1371.6,1458.5-3272.7C2096-3942.4,2887.8-4407.4,3767-4632.9c435-110.5,764.1-151.9,1233.6-151.9c817.1,0,1514.4,165.7,2225.6,529.4c1703.2,870,2745.8,2646.8,2669.8,4547.9c-87.4,2168.1-1576.6,4023.2-3661.8,4557.1C5718.7,4980.8,5267.6,5024.5,4701.4,4996.9z M6492.1,2483.6c174.9-115.1,301.5-345.2,338.3-607.6l16.1-122H4841.8h-2007l16.1,122c41.4,306.1,197.9,557,412,651.3c55.2,25.3,372.9,29.9,1601.9,25.3l1530.5-4.6L6492.1,2483.6z M6768.3,1132.5c99-59.8,165.7-174.9,165.7-285.4c0-151.9-508.7-3312-545.5-3392.5c-20.7-41.4-69-96.7-108.2-126.6l-71.3-50.6H4839.5H3470.1l-71.3,50.6c-39.1,29.9-87.5,85.1-108.2,126.6c-36.8,78.2-545.5,3259-545.5,3401.7c0,101.3,69,216.3,165.7,276.2c73.6,43.7,119.7,46,1928.7,46C6648.6,1178.6,6694.6,1176.3,6768.3,1132.5z"/><path d="M3573.7,541c-18.4-6.9-57.5-34.5-85.2-59.8c-71.3-64.5-71.3-82.9,39.1-1328c117.4-1351,108.2-1284.3,172.6-1348.7c117.4-117.4,333.7-34.5,333.7,126.6c0,36.8-46,593.8-103.6,1238.3c-57.5,642.1-103.6,1187.6-103.6,1208.3C3826.8,472,3665.7,575.6,3573.7,541z"/><path d="M4708.3,501.9l-64.4-55.2V-842.2v-1288.9l55.2-59.9c82.9-87.5,209.4-82.8,287.7,11.5l59.8,71.4l-4.6,1277.4l-6.9,1277.4l-64.5,55.2C4887.9,573.3,4791.2,573.3,4708.3,501.9z"/><path d="M5951.2,534.1c-108.2-46-115.1-73.7-223.2-1323.4c-57.5-658.3-105.9-1231.3-105.9-1272.8c0-191,278.5-262.4,368.3-96.7c23,43.7,230.2,2276.2,230.2,2488c0,78.3-11.5,117.4-50.6,154.2C6105.4,541,6017.9,561.8,5951.2,534.1z"/></g></g>
</svg>