<?xml version="1.0" encoding="utf-8"?>
<!-- Svg Vector Icons : http://www.onlinewebfonts.com/icon -->
<!DOCTYPE svg PUBLIC "-//W3C//DTD SVG 1.1//EN" "http://www.w3.org/Graphics/SVG/1.1/DTD/svg11.dtd">
<svg version="1.1" xmlns="http://www.w3.org/2000/svg" xmlns:xlink="http://www.w3.org/1999/xlink" x="0px" y="0px" viewBox="0 0 1000 1000" enable-background="new 0 0 1000 1000" xml:space="preserve">
<metadata> Svg Vector Icons : http://www.onlinewebfonts.com/icon </metadata>
<g><g transform="translate(0.000000,511.000000) scale(0.100000,-0.100000)"><path d="M4642.9,5005.9c-31.2-3.9-142.1-17.5-243.4-29.2c-278.4-31.2-621.1-107.1-924.9-206.4c-268.7-85.7-274.5-89.6-391.4-208.3c-286.2-292.1-525.7-761.3-621.1-1228.6c-48.7-233.7-58.4-623.1-23.4-856.7c62.3-393.3,208.3-771,422.5-1092.3c132.4-198.6,490.7-556.9,689.3-689.3c204.4-136.3,506.2-278.4,722.4-340.7c155.8-44.8,516-109,531.6-95.4c3.9,1.9-7.8,91.5-27.3,196.7c-46.7,259-48.7,745.7-2,998.8c159.7,862.5,714.6,1621.9,1479.8,2026.9c408.9,214.2,765.2,307.6,1240.3,323.2c301.8,9.7,479-5.8,759.4-64.2c40.9-9.7,35,1.9-46.7,77.9c-50.6,50.6-173.3,149.9-272.6,223.9C7287,4528.8,6527.7,4842.3,5704,4968.9C5509.3,4998.1,4771.4,5025.3,4642.9,5005.9z"/><path d="M2501.1,4330.2c-373.8-214.2-815.8-574.4-1123.5-917.1C705.9,2665.5,295.1,1799,145.1,811.9C104.3,539.3,84.8-105.2,114-214.3c58.4-216.1,467.3-704.8,774.9-924.9c1047.5-753.5,2453.3-638.6,3354.8,274.6C4356.7-751.6,4493-592,4545.5-512.2c109,165.5,266.7,465.4,253.1,486.8c-3.9,7.8-75.9,19.5-155.8,27.3c-192.8,17.5-469.2,87.6-687.3,175.2c-919,368-1571.3,1160.4-1769.9,2143.7c-52.6,262.9-46.7,808,9.7,1074.8c66.2,307.6,190.8,632.8,332.9,878.1c33.1,54.5,58.4,101.3,56.5,101.3C2580.9,4375,2543.9,4353.6,2501.1,4330.2z"/><path d="M7174.1,3510.5c-477-91.5-864.5-266.7-1228.6-560.8c-334.9-270.6-636.7-702.9-792.5-1135.1c-153.8-430.3-186.9-944.3-91.5-1386.3l23.4-101.2l72,44.8c457.6,290.1,1144.9,442,1715.4,381.6c716.5-75.9,1304.5-362.1,1795.2-872.3c449.8-469.2,700.9-1010.5,786.6-1697.9l13.6-107.1l46.7,107.1c146,327.1,282.3,821.7,350.5,1259.8c46.7,301.8,46.7,1026.1,0,1339.6c-81.8,547.1-229.8,1024.2-465.4,1499.2c-200.5,405-537.4,905.4-673.7,996.9c-83.7,54.5-362.2,155.8-568.6,204.4C7943.2,3533.9,7376.6,3549.5,7174.1,3510.5z"/><path d="M6395.3,488.7c-416.7-48.7-747.7-149.9-1053.4-323.2L5240.6,109l188.9-188.9c227.8-231.7,379.7-442,519.9-716.5c210.3-414.7,305.7-821.7,305.7-1302.6c0-315.4-27.3-523.8-112.9-817.8c-52.6-183-202.5-516-307.6-681.5c-280.4-447.8-728.2-850.9-1185.8-1067c-93.4-44.8-171.3-87.6-171.3-93.5c0-23.4,490.7-42.8,749.6-29.2c685.4,33.1,1326,198.6,1933.4,498.4c769.1,377.7,1400,922.9,1878.9,1616.1l140.2,204.4v360.2c0,274.6-7.8,399.2-35,525.7C9006.3-940.5,8653.9-389.5,8137.9-7.9c-202.5,149.9-572.5,332.9-810,401.1C7035.9,475,6638.6,515.9,6395.3,488.7z"/><path d="M4987.5-288.2c-99.3-204.4-227.8-405-373.8-584.1C4021.8-1590.8,3056-1991.9,2150.6-1896.5c-693.2,74-1259.8,340.7-1746.5,819.7C244.4-921,197.7-882.1,205.5-921c290.1-1279.2,1020.3-2346.2,2100.9-3064.7c297.9-198.6,788.6-436.1,1148.8-554.9c360.2-120.7,403.1-122.7,724.3-19.5c913.2,290.1,1584.9,1049.5,1771.8,1999.7c48.7,251.2,42.8,712.6-11.7,971.6c-101.3,488.7-325.2,917.1-658.1,1271.4C5069.3-91.6,5081-93.5,4987.5-288.2z"/></g></g>
</svg>